<svg width="24" viewBox="0 0 488 420" fill="none" xmlns="http://www.w3.org/2000/svg"><path d="M476.36 97.655L487.273 2.81265C487.517 0.690702 485.176 -0.752892 483.39 0.418672L407.564 50.1583L291.058 118.832C290.134 119.377 289.656 120.447 289.868 121.499L306.492 204.193C306.662 205.038 306.388 205.91 305.767 206.507L244.42 265.407C243.925 265.882 243.645 266.538 243.645 267.224V417.476C243.645 419.882 246.697 420.919 248.162 419.01L288.831 366.043C289.169 365.603 289.352 365.063 289.352 364.509V333.051C289.352 330.867 291.943 329.718 293.562 331.185L309.011 345.182C310.016 346.093 311.562 346.044 312.507 345.072L354.38 302.044C356.069 300.308 354.574 297.421 352.181 297.799L334.626 300.575C334.079 300.661 333.519 300.565 333.032 300.301L316.682 291.434C314.64 290.327 315.058 287.281 317.322 286.764L383.459 271.661C383.87 271.568 384.251 271.372 384.566 271.093L427.657 233.016C429.395 231.48 428.308 228.61 425.989 228.61H400.166C399.596 228.61 399.044 228.417 398.598 228.063L375.167 209.438C373.393 208.027 374.24 205.173 376.497 204.958L431.431 199.743C432.197 199.67 432.887 199.252 433.306 198.607L464.583 150.448C465.672 148.772 464.469 146.557 462.471 146.557H433.036C430.774 146.557 429.659 143.807 431.281 142.231L475.613 99.1739C476.03 98.769 476.294 98.2324 476.36 97.655Z" fill="url(#paint0_linear_283_520)"></path><path d="M10.9305 97.655L0.0176341 2.81265C-0.226524 0.690702 2.11543 -0.752892 3.90141 0.418672L79.7265 50.1583L196.233 118.832C197.157 119.377 197.635 120.447 197.423 121.499L180.799 204.193C180.629 205.038 180.903 205.91 181.524 206.507L242.871 265.407C243.366 265.882 243.645 266.538 243.645 267.224V417.476C243.645 419.882 240.594 420.919 239.129 419.01L198.46 366.043C198.122 365.603 197.939 365.063 197.939 364.509V333.051C197.939 330.867 195.348 329.718 193.729 331.185L178.28 345.182C177.275 346.093 175.729 346.044 174.784 345.072L132.911 302.044C131.222 300.308 132.717 297.421 135.11 297.799L152.665 300.575C153.212 300.661 153.772 300.565 154.259 300.301L170.609 291.434C172.651 290.327 172.233 287.281 169.969 286.764L103.832 271.661C103.421 271.568 103.04 271.372 102.725 271.093L59.6343 233.016C57.896 231.48 58.9825 228.61 61.3021 228.61H87.1252C87.6945 228.61 88.2469 228.417 88.6925 228.063L112.124 209.438C113.898 208.027 113.051 205.173 110.794 204.958L55.8595 199.743C55.0942 199.67 54.4039 199.252 53.9852 198.607L22.7077 150.448C21.6194 148.772 22.822 146.557 24.82 146.557H54.2549C56.5166 146.557 57.6322 143.807 56.0097 142.231L11.6779 99.1739C11.261 98.769 10.9969 98.2324 10.9305 97.655Z" fill="url(#paint1_linear_283_520)"></path><path d="M241.491 60.4293C242.216 57.8946 245.075 57.8946 245.8 60.4293L284.208 194.736C285.002 197.51 282.344 199.801 280.561 197.88L245.138 159.687C244.28 158.762 243.011 158.762 242.153 159.687L206.73 197.88C204.947 199.801 202.289 197.51 203.082 194.736L241.491 60.4293Z" fill="white"></path><path d="M242.395 241.245C243.155 241.866 244.136 241.866 244.896 241.245L281.777 211.093C284.018 209.261 282.36 204.922 279.817 205.961L244.355 220.457C243.894 220.646 243.397 220.646 242.936 220.457L207.474 205.961C204.931 204.922 203.273 209.261 205.514 211.092L242.395 241.245Z" fill="#EEC762"></path><defs><linearGradient id="paint0_linear_283_520" x1="243.645" y1="0" x2="243.645" y2="420" gradientUnits="userSpaceOnUse"><stop offset="0.484375" stop-color="#EEC761"></stop><stop offset="0.802083" stop-color="#F35E5E"></stop><stop offset="1" stop-color="#EC4D85"></stop></linearGradient><linearGradient id="paint1_linear_283_520" x1="243.645" y1="-128.055" x2="243.645" y2="420" gradientUnits="userSpaceOnUse"><stop offset="0.46875" stop-color="#EFEFF0"></stop><stop offset="0.640625" stop-color="#ABEDEE"></stop><stop offset="1" stop-color="#79C3ED"></stop></linearGradient></defs></svg>